<svg xmlns="http://www.w3.org/2000/svg" version="1.1" xmlns:xlink="http://www.w3.org/1999/xlink" xmlns:svgjs="http://svgjs.dev/svgjs" width="1000" height="623" viewBox="0 0 1000 623"><g transform="matrix(1,0,0,1,-0.6060606060606233,0.2522267206477409)"><svg viewBox="0 0 396 247" data-background-color="#ffffff" preserveAspectRatio="xMidYMid meet" height="623" width="1000" xmlns="http://www.w3.org/2000/svg" xmlns:xlink="http://www.w3.org/1999/xlink"><g id="tight-bounds" transform="matrix(1,0,0,1,0.2400000000000091,-0.09999999999999432)"><svg viewBox="0 0 395.52 247.2" height="247.2" width="395.52"><g><svg></svg></g><g><svg viewBox="0 0 395.52 247.2" height="247.2" width="395.52"><mask id="f1ff4272-9c80-4d1d-aa2f-34b694ab2c91"><rect width="640" height="400" fill="white"></rect><g transform="matrix(1,0,0,1,40.90432941176471,37.08)"><svg viewBox="0 0 313.71134117647057 173.04" height="173.04" width="313.71134117647057"><g><svg viewBox="0 0 313.71134117647057 173.04" height="173.04" width="313.71134117647057"><g><svg viewBox="0 0 313.71134117647057 173.04" height="173.04" width="313.71134117647057"><g><svg viewBox="0 0 313.71134117647057 173.04" height="173.04" width="313.71134117647057"><g id="SvgjsG1833"><svg viewBox="0 0 313.71134117647057 173.04" height="173.04" width="313.71134117647057" id="SvgjsSvg1832"><g><svg viewBox="0 0 313.71134117647057 173.04" height="173.04" width="313.71134117647057"><g transform="matrix(1,0,0,1,0,0)"><svg width="313.71134117647057" viewBox="-0.5999999046325684 -39.5 78.04999542236328 43.5" height="173.04" data-palette-color="#ffffff"><path d="M39.6 0L31.4 0 31.4-21.15 23.75-5.75 19.25-5.75 11.6-21.15 11.6 0 3.4 0 3.4-35.5 12.3-35.5 21.5-16.95 30.75-35.5 39.6-35.5 39.6 0ZM73.45-35.5L73.45-28.3 62.65-28.3 62.65 0 54.45 0 54.45-28.3 43.6-28.3 43.6-35.5 73.45-35.5Z" opacity="1" transform="matrix(1,0,0,1,0,0)" fill="black" class="wordmark-text-0" id="SvgjsPath1831" stroke-width="7" stroke="black" stroke-linejoin="round"></path></svg></g></svg></g></svg></g></svg></g></svg></g></svg></g></svg></g></mask><g transform="matrix(1,0,0,1,40.90432941176471,37.08)"><svg viewBox="0 0 313.71134117647057 173.04" height="173.04" width="313.71134117647057"><g><svg viewBox="0 0 313.71134117647057 173.04" height="173.04" width="313.71134117647057"><g><svg viewBox="0 0 313.71134117647057 173.04" height="173.04" width="313.71134117647057"><g><svg viewBox="0 0 313.71134117647057 173.04" height="173.04" width="313.71134117647057"><g id="textblocktransform"><svg viewBox="0 0 313.71134117647057 173.04" height="173.04" width="313.71134117647057" id="textblock"><g><svg viewBox="0 0 313.71134117647057 173.04" height="173.04" width="313.71134117647057"><g transform="matrix(1,0,0,1,0,0)"><svg width="313.71134117647057" viewBox="-0.5999999046325684 -39.5 78.04999542236328 43.5" height="173.04" data-palette-color="#ffffff"><path d="M39.6 0L31.4 0 31.4-21.15 23.75-5.75 19.25-5.75 11.6-21.15 11.6 0 3.4 0 3.4-35.5 12.3-35.5 21.5-16.95 30.75-35.5 39.6-35.5 39.6 0ZM73.45-35.5L73.45-28.3 62.65-28.3 62.65 0 54.45 0 54.45-28.3 43.6-28.3 43.6-35.5 73.45-35.5Z" opacity="1" transform="matrix(1,0,0,1,0,0)" fill="#ffffff" class="wordmark-text-0" data-fill-palette-color="primary" id="text-0"></path></svg></g></svg></g></svg></g></svg></g></svg></g></svg></g></svg></g><g mask="url(#f1ff4272-9c80-4d1d-aa2f-34b694ab2c91)"><g transform="matrix(3.4642065827229525, 0, 0, 3.4642065827229525, 75.1582688481814, 1)"><svg xmlns="http://www.w3.org/2000/svg" xmlns:xlink="http://www.w3.org/1999/xlink" version="1.1" x="0" y="0" viewBox="14.609999656677246 14.609999656677246 70.78199768066406 70.78099822998047" enable-background="new 0 0 100 100" xml:space="preserve" height="70.78099822998047" width="70.78199768066406" class="icon-none" data-fill-palette-color="accent" id="none"><path d="M55.485 42.639L62.9 50l-7.415 7.363 2.549 2.566L68.033 50l-9.999-9.928L55.485 42.639zM41.967 40.072l-10 9.928 10 9.93 2.548-2.566L37.101 50l7.415-7.361L41.967 40.072zM50.001 14.61C30.486 14.61 14.61 30.486 14.61 50c0 19.515 15.876 35.391 35.391 35.391S85.392 69.515 85.392 50C85.392 30.486 69.516 14.61 50.001 14.61zM50.001 81.773C32.48 81.773 18.226 67.521 18.226 50c0-17.52 14.254-31.774 31.775-31.774S81.774 32.48 81.774 50C81.774 67.521 67.521 81.773 50.001 81.773z" fill="#ff9966" data-fill-palette-color="accent"></path></svg></g></g></svg></g><defs></defs></svg><rect width="395.52" height="247.2" fill="none" stroke="none" visibility="hidden"></rect></g></svg></g></svg>